<svg width="142" height="24" viewBox="0 0 142 24" fill="none" xmlns="http://www.w3.org/2000/svg">
<g clip-path="url(#clip0_1014_232)">
<path fill-rule="evenodd" clip-rule="evenodd" d="M1.50977 23.3029H0V5.63448H1.50977V7.65022H1.55874C2.59517 6.14045 3.83563 5.38965 5.50862 5.38965C8.8954 5.38965 10.7561 8.65402 10.7561 12.2448C10.7561 16.7823 8.63425 18.9368 5.61471 18.9368C3.85195 18.9368 2.7992 18.3329 1.51793 16.9782V23.3029H1.50977ZM56.7592 12.204C56.7592 15.1746 57.9996 17.729 60.9621 17.729C62.6432 17.729 63.4756 17.1577 64.7814 15.1011L66.0055 15.754C64.6018 18.0554 63.3124 18.9368 60.8397 18.9368C57.4121 18.9368 55.2657 16.7578 55.2657 12.1632C55.2657 8.12356 57.3223 5.38965 60.6356 5.38965C64.1775 5.38965 65.8586 8.16436 65.8586 12.2122H56.7673L56.7592 12.204ZM102.787 12.204C102.787 15.1746 104.011 17.729 106.99 17.729C108.671 17.729 109.495 17.1577 110.801 15.1011L112.025 15.754C110.638 18.0554 109.348 18.9368 106.859 18.9368C103.448 18.9368 101.285 16.7578 101.285 12.1632C101.285 8.12356 103.35 5.38965 106.671 5.38965C110.205 5.38965 111.894 8.16436 111.894 12.2122H102.803L102.787 12.204ZM90.1129 18.6838H88.6602L88.4562 17.1006C86.8893 18.3247 85.7141 18.9286 83.7065 18.9286C81.6663 18.9286 80.1157 17.6718 80.1157 15.5174C80.1157 11.951 83.021 11.3063 88.4725 10.0985V9.2008C88.4725 7.46252 87.7217 6.5893 85.4856 6.5893C83.9351 6.5893 82.6456 7.43804 81.6908 8.95597L80.6952 8.3439C81.8377 6.23839 83.4372 5.38149 85.5428 5.38149C88.5052 5.38149 89.9088 6.5893 89.9088 9.46195V16.2926C89.9088 16.9455 89.966 17.8024 90.1129 18.6756V18.6838ZM128.518 9.29873C127.841 7.78896 126.861 6.58114 125.123 6.58114C122.675 6.58114 121.01 8.1154 121.01 12.1469C121.01 15.4765 122.512 17.7126 125.123 17.7126C126.984 17.7126 127.98 16.6844 129.04 15.0032L130.248 15.5745C129.147 17.4352 127.612 18.9205 125.123 18.9205C121.451 18.9205 119.492 16.0805 119.492 12.1469C119.492 7.65839 121.761 5.37333 125.123 5.37333C127.588 5.37333 129.122 6.76068 129.897 8.90701L128.51 9.28241L128.518 9.29873ZM19.6107 6.83413H18.9333C17.2767 6.83413 15.114 8.79275 15.114 11.3063V18.6756H13.6124V5.61816H15.114V8.10724H15.163C15.8648 6.49953 17.2848 5.37333 18.9333 5.37333H19.6107V6.82597V6.83413ZM70.4777 18.6675H68.9598V0.574707H70.4777V12.5713L76.5331 5.63448H78.2632L74.0195 10.5065L78.9161 18.6838H77.2349L73.0729 11.5511L70.4777 14.4646V18.6756V18.6675ZM95.4827 18.6675H93.9811V5.6508H95.4827V8.13988H95.5399C96.2417 6.53218 97.6454 5.40597 99.2939 5.40597H99.9794V6.85861H99.3102C97.6536 6.85861 95.4909 8.81724 95.4909 11.3308V18.7001L95.4827 18.6675ZM54.0579 18.6675H44.3138V0.574707H45.9705V17.3291H54.0498V18.6838L54.0579 18.6675ZM141.518 18.6675H131.799V17.7208L139.331 6.83413H132.395V5.63448H141.347V6.5893L133.815 17.476H141.543V18.7001L141.518 18.6675ZM88.4154 11.3063C82.4416 12.6121 81.6418 13.8362 81.6418 15.4929C81.6418 16.9129 82.6211 17.7126 83.9677 17.7126C85.3795 17.7126 87.1096 16.8965 88.4154 15.5582V11.2982V11.3063ZM1.51793 15.3868C2.00759 16.2682 3.72138 17.7208 5.20667 17.7208C7.91609 17.7208 9.24632 15.5663 9.24632 11.9592C9.24632 9.2416 8.04667 6.5893 5.43517 6.5893C3.77851 6.5893 2.7992 7.61758 1.51793 8.97229V15.3949V15.3868ZM64.357 11.0044C64.0551 8.31126 62.888 6.59747 60.603 6.58114C57.9344 6.55666 56.8 9.27425 56.7673 10.988H64.357V11.0044ZM110.385 11.0044C110.083 8.31126 108.899 6.59747 106.614 6.58114C103.954 6.55666 102.828 9.27425 102.803 10.988H110.393L110.385 11.0044ZM60.3337 4.18183H59.0524L61.8434 0.721604H63.7776L60.3337 4.18999V4.18183ZM97.0578 4.18183H95.3603L92.4632 0.721604H94.128L96.1928 3.25149L98.2575 0.737925H99.9305L97.0741 4.20632L97.0578 4.18183Z" fill="#5C5C5C"/>
<path fill-rule="evenodd" clip-rule="evenodd" d="M114.89 18.6923H117.053V16.4072H114.89M39.9076 12.1635C39.9076 17.1009 35.9087 21.0997 30.9714 21.0997C26.034 21.0997 22.0352 17.1009 22.0352 12.1635C22.0352 7.25064 26.034 3.26812 30.9795 3.26812C35.9087 3.25179 39.9076 7.25064 39.9076 12.1635Z" fill="#C1121E"/>
<path fill-rule="evenodd" clip-rule="evenodd" d="M36.5289 10.4004H32.7504V6.61377H29.2004V10.4004H25.4219V13.9504H29.2004V17.7126H32.7504V13.9586H36.5289" fill="white"/>
</g>
<defs>
<clipPath id="clip0_1014_232">
<rect width="142" height="22.8506" fill="white" transform="translate(0 0.574707)"/>
</clipPath>
</defs>
</svg>
